<svg xmlns="http://www.w3.org/2000/svg" width="180" height="180" viewBox="0 0 180 180" fill="none">
    <path d="M37.8552 57.568H87.1176V66.9136H71.5944V88.456C71.5944 90.7264 71.2248 92.2312 70.4856 92.9704C69.7992 93.6568 68.2152 94 65.7336 94H53.5368V66.9136H37.8552V57.568Z" fill="currentColor"/>
    <path d="M141.845 75.784C141.845 79.3216 141.422 82.2784 140.577 84.6544C139.785 87.0304 138.465 88.9048 136.617 90.2776C134.822 91.5976 132.42 92.548 129.41 93.1288C126.453 93.7096 122.784 94 118.401 94C115.339 94 112.541 94 110.006 94C107.525 94 105.201 94 103.037 94C100.925 94 98.8918 94 96.9382 94C95.0374 94 93.163 94 91.315 94V62.9536C91.315 61 91.7902 59.6272 92.7406 58.8352C93.691 57.9904 95.2222 57.568 97.3342 57.568C99.0766 57.568 100.819 57.568 102.561 57.568C104.357 57.568 106.125 57.568 107.868 57.568C109.61 57.568 111.353 57.568 113.095 57.568C114.89 57.568 116.659 57.568 118.401 57.568C122.784 57.568 126.453 57.8584 129.41 58.4392C132.42 59.02 134.822 59.9968 136.617 61.3696C138.465 62.6896 139.785 64.5376 140.577 66.9136C141.422 69.2368 141.845 72.1936 141.845 75.784ZM109.373 85.1296C109.953 85.1296 110.508 85.1296 111.036 85.1296C111.617 85.1296 112.171 85.1296 112.699 85.1296C113.28 85.1296 113.861 85.1296 114.441 85.1296C115.022 85.1296 115.577 85.1296 116.105 85.1296C117.372 85.1296 118.454 84.9976 119.352 84.7336C120.302 84.4168 121.068 83.9152 121.649 83.2288C122.229 82.4896 122.652 81.5128 122.916 80.2984C123.18 79.084 123.312 77.5792 123.312 75.784C123.312 73.144 123.048 71.164 122.52 69.844C121.992 68.524 121.147 67.6264 119.985 67.1512C118.877 66.676 117.345 66.4384 115.392 66.4384C114.758 66.4384 114.098 66.4384 113.412 66.4384C112.725 66.4384 112.039 66.4384 111.353 66.4384C110.719 66.4384 110.059 66.4384 109.373 66.4384C109.373 66.808 109.373 67.204 109.373 67.6264C109.373 67.996 109.373 68.392 109.373 68.8144V85.1296Z" fill="currentColor"/>
    <path d="M10.8901 134V102.32C10.8901 100.208 11.3125 98.888 12.1573 98.36C13.0549 97.832 14.8237 97.568 17.4637 97.568H31.4029L37.8973 112.141L38.0557 113.17H38.2141L38.3725 112.141L44.3917 97.568H59.1229C61.6573 97.568 63.2677 97.9376 63.9541 98.6768C64.6933 99.3632 65.0629 100.762 65.0629 102.874V128.773C65.0629 130.515 64.8781 131.756 64.5085 132.495C64.1389 133.182 63.4789 133.604 62.5285 133.762C61.5781 133.921 60.2317 134 58.4893 134H47.0053V116.734L46.3717 119.823L40.5109 134H29.9773L24.1165 119.823L23.4829 116.734V134H10.8901ZM66.5905 134L80.6089 104.379C81.6649 102.162 83.1433 100.419 85.0441 99.152C86.9977 97.8848 89.9281 97.2512 93.8353 97.2512C96.8977 97.2512 99.4849 97.8584 101.597 99.0728C103.762 100.234 105.399 102.003 106.507 104.379L120.526 134H100.963L97.5577 127.189H83.4601L80.2921 134H66.5905ZM86.2321 120.615H94.2313L90.5881 113.012C90.5353 112.854 90.4825 112.695 90.4297 112.537C90.3769 112.378 90.3505 112.299 90.3505 112.299C90.3505 112.299 90.3241 112.378 90.2713 112.537C90.2185 112.695 90.1393 112.854 90.0337 113.012L86.2321 120.615ZM121.345 115.784C121.345 112.141 121.794 109.131 122.692 106.755C123.642 104.326 125.226 102.426 127.444 101.053C129.714 99.68 132.777 98.7032 136.631 98.1224C140.485 97.5416 145.317 97.2512 151.125 97.2512C153.342 97.2512 155.401 97.3304 157.302 97.4888C159.256 97.5944 161.315 97.7792 163.48 98.0432C166.12 98.36 167.862 99.02 168.707 100.023C169.552 101.026 169.974 102.452 169.974 104.3V109.765C168.073 109.131 166.014 108.63 163.797 108.26C161.632 107.838 159.493 107.521 157.381 107.31C155.322 107.098 153.501 106.993 151.917 106.993C149.171 106.993 146.901 107.151 145.105 107.468C143.31 107.732 141.964 108.498 141.066 109.765C140.221 110.979 139.799 113.012 139.799 115.863C139.799 118.503 140.248 120.457 141.145 121.724C142.096 122.938 143.574 123.73 145.581 124.1C147.587 124.417 150.174 124.575 153.342 124.575C154.821 124.575 156.352 124.496 157.936 124.338C159.52 124.126 161.262 123.862 163.163 123.546C165.117 123.176 167.387 122.754 169.974 122.278V127.347C169.974 129.037 169.525 130.41 168.628 131.466C167.73 132.522 165.882 133.208 163.084 133.525C161.025 133.842 158.939 134.053 156.827 134.158C154.768 134.264 152.629 134.317 150.412 134.317C144.604 134.317 139.799 134.026 135.997 133.446C132.249 132.865 129.292 131.888 127.127 130.515C125.015 129.142 123.51 127.268 122.613 124.892C121.768 122.463 121.345 119.427 121.345 115.784Z" fill="currentColor"/>
</svg>