<svg xmlns="http://www.w3.org/2000/svg" width="261" height="93" viewBox="0 0 261 93" fill="none"><g clip-path="url(#clip0_1_2)"><path d="M12.9 17.9H50.22V24.98H38.46V41.3C38.46 43.02 38.18 44.16 37.62 44.72C37.1 45.24 35.9 45.5 34.02 45.5H24.78V24.98H12.9V17.9ZM52.6406 41.96C52.6406 40.28 53.2206 39.24 54.3806 38.84C55.5806 38.4 57.0406 38.18 58.7606 38.18C60.4806 38.18 61.8406 38.4 62.8406 38.84C63.8406 39.28 64.3406 40.32 64.3406 41.96C64.3406 43.16 64.1006 44.02 63.6206 44.54C63.1406 45.06 62.4606 45.38 61.5806 45.5C60.7406 45.66 59.7206 45.74 58.5206 45.74C57.3606 45.74 56.3406 45.66 55.4606 45.5C54.5806 45.38 53.8806 45.06 53.3606 44.54C52.8806 44.02 52.6406 43.16 52.6406 41.96ZM106.228 31.7C106.228 34.38 105.908 36.62 105.268 38.42C104.668 40.22 103.668 41.64 102.268 42.68C100.908 43.68 99.0877 44.4 96.8077 44.84C94.5677 45.28 91.7877 45.5 88.4677 45.5C86.1477 45.5 84.0277 45.5 82.1077 45.5C80.2277 45.5 78.4677 45.5 76.8277 45.5C75.2277 45.5 73.6877 45.5 72.2077 45.5C70.7677 45.5 69.3477 45.5 67.9477 45.5V21.98C67.9477 20.5 68.3077 19.46 69.0277 18.86C69.7477 18.22 70.9077 17.9 72.5077 17.9C73.8277 17.9 75.1477 17.9 76.4677 17.9C77.8277 17.9 79.1677 17.9 80.4877 17.9C81.8077 17.9 83.1277 17.9 84.4477 17.9C85.8077 17.9 87.1477 17.9 88.4677 17.9C91.7877 17.9 94.5677 18.12 96.8077 18.56C99.0877 19 100.908 19.74 102.268 20.78C103.668 21.78 104.668 23.18 105.268 24.98C105.908 26.74 106.228 28.98 106.228 31.7ZM81.6277 38.78C82.0677 38.78 82.4877 38.78 82.8877 38.78C83.3277 38.78 83.7477 38.78 84.1477 38.78C84.5877 38.78 85.0277 38.78 85.4677 38.78C85.9077 38.78 86.3277 38.78 86.7277 38.78C87.6877 38.78 88.5077 38.68 89.1877 38.48C89.9077 38.24 90.4877 37.86 90.9277 37.34C91.3677 36.78 91.6877 36.04 91.8877 35.12C92.0877 34.2 92.1877 33.06 92.1877 31.7C92.1877 29.7 91.9877 28.2 91.5877 27.2C91.1877 26.2 90.5477 25.52 89.6677 25.16C88.8277 24.8 87.6677 24.62 86.1877 24.62C85.7077 24.62 85.2077 24.62 84.6877 24.62C84.1677 24.62 83.6477 24.62 83.1277 24.62C82.6477 24.62 82.1477 24.62 81.6277 24.62C81.6277 24.9 81.6277 25.2 81.6277 25.52C81.6277 25.8 81.6277 26.1 81.6277 26.42V38.78ZM108.949 41.96C108.949 40.28 109.529 39.24 110.689 38.84C111.889 38.4 113.349 38.18 115.069 38.18C116.789 38.18 118.149 38.4 119.149 38.84C120.149 39.28 120.649 40.32 120.649 41.96C120.649 43.16 120.409 44.02 119.929 44.54C119.449 45.06 118.769 45.38 117.889 45.5C117.049 45.66 116.029 45.74 114.829 45.74C113.669 45.74 112.649 45.66 111.769 45.5C110.889 45.38 110.189 45.06 109.669 44.54C109.189 44.02 108.949 43.16 108.949 41.96ZM124.556 45.5V21.5C124.556 19.9 124.876 18.9 125.516 18.5C126.196 18.1 127.536 17.9 129.536 17.9H140.096L145.016 28.94L145.136 29.72H145.256L145.376 28.94L149.936 17.9H161.096C163.016 17.9 164.236 18.18 164.756 18.74C165.316 19.26 165.596 20.32 165.596 21.92V41.54C165.596 42.86 165.456 43.8 165.176 44.36C164.896 44.88 164.396 45.2 163.676 45.32C162.956 45.44 161.936 45.5 160.616 45.5H151.916V32.42L151.436 34.76L146.996 45.5H139.016L134.576 34.76L134.096 32.42V45.5H124.556ZM167.557 45.5L178.177 23.06C178.977 21.38 180.097 20.06 181.537 19.1C183.017 18.14 185.237 17.66 188.197 17.66C190.517 17.66 192.477 18.12 194.077 19.04C195.717 19.92 196.957 21.26 197.797 23.06L208.417 45.5H193.597L191.017 40.34H180.337L177.937 45.5H167.557ZM182.437 35.36H188.497L185.737 29.6C185.697 29.48 185.657 29.36 185.617 29.24C185.577 29.12 185.557 29.06 185.557 29.06C185.557 29.06 185.537 29.12 185.497 29.24C185.457 29.36 185.397 29.48 185.317 29.6L182.437 35.36ZM209.841 31.7C209.841 28.94 210.181 26.66 210.861 24.86C211.581 23.02 212.781 21.58 214.461 20.54C216.181 19.5 218.501 18.76 221.421 18.32C224.341 17.88 228.001 17.66 232.401 17.66C234.081 17.66 235.641 17.72 237.081 17.84C238.561 17.92 240.121 18.06 241.761 18.26C243.761 18.5 245.081 19 245.721 19.76C246.361 20.52 246.681 21.6 246.681 23V27.14C245.241 26.66 243.681 26.28 242.001 26C240.361 25.68 238.741 25.44 237.141 25.28C235.581 25.12 234.201 25.04 233.001 25.04C230.921 25.04 229.201 25.16 227.841 25.4C226.481 25.6 225.461 26.18 224.781 27.14C224.141 28.06 223.821 29.6 223.821 31.76C223.821 33.76 224.161 35.24 224.841 36.2C225.561 37.12 226.681 37.72 228.201 38C229.721 38.24 231.681 38.36 234.081 38.36C235.201 38.36 236.361 38.3 237.561 38.18C238.761 38.02 240.081 37.82 241.521 37.58C243.001 37.3 244.721 36.98 246.681 36.62V40.46C246.681 41.74 246.341 42.78 245.661 43.58C244.981 44.38 243.581 44.9 241.461 45.14C239.901 45.38 238.321 45.54 236.721 45.62C235.161 45.7 233.541 45.74 231.861 45.74C227.461 45.74 223.821 45.52 220.941 45.08C218.101 44.64 215.861 43.9 214.221 42.86C212.621 41.82 211.481 40.4 210.801 38.6C210.161 36.76 209.841 34.46 209.841 31.7Z" fill="currentColor"/><path d="M11.488 64.46C11.488 62.22 11.744 60.38 12.256 58.94C12.768 57.468 13.632 56.316 14.848 55.484C16.064 54.652 17.68 54.06 19.696 53.708C21.744 53.356 24.272 53.18 27.28 53.18C28.56 53.18 29.76 53.228 30.88 53.324C32.032 53.388 33.232 53.516 34.48 53.708C35.824 53.868 36.704 54.188 37.12 54.668C37.536 55.148 37.744 55.804 37.744 56.636V59.084C36.816 58.732 35.728 58.444 34.48 58.22C33.264 57.996 32.048 57.836 30.832 57.74C29.616 57.612 28.544 57.548 27.616 57.548C25.728 57.548 24.176 57.708 22.96 58.028C21.776 58.348 20.912 59.004 20.368 59.996C19.824 60.988 19.552 62.492 19.552 64.508C19.552 66.428 19.824 67.884 20.368 68.876C20.912 69.868 21.824 70.54 23.104 70.892C24.384 71.244 26.08 71.42 28.192 71.42C29.088 71.42 30.032 71.372 31.024 71.276C32.048 71.148 33.104 70.988 34.192 70.796C35.312 70.604 36.496 70.364 37.744 70.076V72.332C37.744 73.1 37.52 73.74 37.072 74.252C36.624 74.732 35.712 75.068 34.336 75.26C33.12 75.452 31.904 75.58 30.688 75.644C29.504 75.708 28.272 75.74 26.992 75.74C23.952 75.74 21.424 75.58 19.408 75.26C17.424 74.908 15.84 74.316 14.656 73.484C13.504 72.652 12.688 71.516 12.208 70.076C11.728 68.604 11.488 66.732 11.488 64.46ZM53.9243 75.788C52.1003 75.788 50.4843 75.66 49.0763 75.404C47.6683 75.148 46.4843 74.668 45.5243 73.964C44.5963 73.26 43.8923 72.268 43.4123 70.988C42.9323 69.676 42.6923 67.996 42.6923 65.948C42.6923 63.9 42.9323 62.236 43.4123 60.956C43.8923 59.644 44.5963 58.636 45.5243 57.932C46.4843 57.228 47.6683 56.748 49.0763 56.492C50.4843 56.236 52.1003 56.108 53.9243 56.108C55.7803 56.108 57.3963 56.236 58.7723 56.492C60.1483 56.748 61.3003 57.228 62.2283 57.932C63.1563 58.636 63.8603 59.644 64.3403 60.956C64.8203 62.236 65.0603 63.9 65.0603 65.948C65.0603 67.996 64.8203 69.676 64.3403 70.988C63.8603 72.3 63.1403 73.308 62.1803 74.012C61.2523 74.684 60.1003 75.148 58.7243 75.404C57.3483 75.66 55.7483 75.788 53.9243 75.788ZM53.9243 72.284C54.8203 72.284 55.5403 72.124 56.0843 71.804C56.6603 71.452 57.0923 70.828 57.3803 69.932C57.6683 69.004 57.8123 67.676 57.8123 65.948C57.8123 64.22 57.6683 62.908 57.3803 62.012C57.0923 61.084 56.6603 60.46 56.0843 60.14C55.5403 59.788 54.8203 59.612 53.9243 59.612C53.0923 59.612 52.3723 59.788 51.7643 60.14C51.1563 60.46 50.6923 61.084 50.3723 62.012C50.0843 62.908 49.9403 64.22 49.9403 65.948C49.9403 67.676 50.0843 69.004 50.3723 69.932C50.6923 70.828 51.1563 71.452 51.7643 71.804C52.3723 72.124 53.0923 72.284 53.9243 72.284ZM72.5934 75.5C71.3774 75.5 70.7694 74.876 70.7694 73.628V57.5C71.7294 57.18 73.1694 56.892 75.0894 56.636C77.0094 56.348 79.1214 56.204 81.4254 56.204C83.8894 56.204 85.8254 56.348 87.2334 56.636C88.6734 56.892 89.7294 57.356 90.4014 58.028C91.1054 58.668 91.5534 59.532 91.7454 60.62C91.9694 61.708 92.0814 63.068 92.0814 64.7V72.812C92.0814 73.516 92.0334 74.076 91.9374 74.492C91.8414 74.876 91.5854 75.148 91.1694 75.308C90.7854 75.468 90.1774 75.548 89.3454 75.548L84.9774 75.5V63.02C84.9774 61.964 84.6574 61.212 84.0174 60.764C83.3774 60.316 82.5134 60.092 81.4254 60.092C81.0414 60.092 80.6254 60.14 80.1774 60.236C79.7294 60.3 79.2974 60.396 78.8814 60.524C78.4974 60.62 78.1774 60.764 77.9214 60.956V75.5H72.5934ZM106.962 75.692C106.194 75.692 105.378 75.676 104.514 75.644C103.65 75.612 102.786 75.548 101.922 75.452C101.09 75.356 100.322 75.212 99.6179 75.02C99.0419 74.892 98.5619 74.732 98.1779 74.54C97.8259 74.316 97.5539 73.916 97.3619 73.34C97.2019 72.732 97.1219 71.788 97.1219 70.508C98.1139 70.86 99.1379 71.148 100.194 71.372C101.25 71.564 102.274 71.708 103.266 71.804C104.29 71.868 105.234 71.9 106.098 71.9C106.706 71.9 107.362 71.9 108.066 71.9C108.802 71.868 109.506 71.788 110.178 71.66C110.85 71.5 111.41 71.26 111.858 70.94C112.306 70.588 112.53 70.108 112.53 69.5C112.53 68.764 112.338 68.284 111.954 68.06C111.57 67.836 111.058 67.724 110.418 67.724H104.946C103.474 67.724 102.162 67.644 101.01 67.484C99.8899 67.324 98.9939 66.892 98.3219 66.188C97.6819 65.452 97.3619 64.22 97.3619 62.492C97.3619 60.604 97.8259 59.212 98.7539 58.316C99.7139 57.388 101.074 56.78 102.834 56.492C104.594 56.204 106.706 56.06 109.17 56.06C110.066 56.06 111.106 56.076 112.29 56.108C113.506 56.14 114.562 56.22 115.458 56.348C116.45 56.444 117.218 56.604 117.762 56.828C118.338 57.02 118.754 57.34 119.01 57.788C119.266 58.204 119.394 58.86 119.394 59.756V61.1C119.202 60.78 118.706 60.54 117.906 60.38C117.138 60.188 116.194 60.06 115.074 59.996C113.986 59.932 112.834 59.9 111.618 59.9C110.434 59.9 109.33 59.9 108.306 59.9C107.602 59.9 106.946 59.948 106.338 60.044C105.762 60.108 105.298 60.3 104.946 60.62C104.594 60.908 104.418 61.388 104.418 62.06C104.418 62.572 104.53 62.956 104.754 63.212C104.978 63.436 105.282 63.58 105.666 63.644C106.05 63.708 106.482 63.74 106.962 63.74H113.058C114.402 63.74 115.586 63.868 116.61 64.124C117.634 64.348 118.418 64.86 118.962 65.66C119.506 66.428 119.778 67.644 119.778 69.308C119.778 71.228 119.234 72.636 118.146 73.532C117.058 74.428 115.554 75.02 113.634 75.308C111.714 75.564 109.49 75.692 106.962 75.692ZM131.695 56.348V68.78C131.695 69.932 131.967 70.748 132.511 71.228C133.087 71.676 133.999 71.9 135.247 71.9C136.559 71.9 137.487 71.66 138.031 71.18C138.575 70.668 138.847 69.884 138.847 68.828V56.348C138.879 56.348 139.087 56.348 139.471 56.348C139.855 56.348 140.287 56.348 140.767 56.348C141.279 56.316 141.743 56.3 142.159 56.3C142.607 56.3 142.879 56.3 142.975 56.3C143.711 56.3 144.303 56.348 144.751 56.444C145.199 56.508 145.519 56.7 145.711 57.02C145.903 57.34 145.999 57.9 145.999 58.7V68.012C145.999 69.932 145.711 71.468 145.135 72.62C144.559 73.74 143.487 74.556 141.919 75.068C140.351 75.548 138.079 75.788 135.103 75.788C132.351 75.788 130.207 75.596 128.671 75.212C127.135 74.796 126.063 74.06 125.455 73.004C124.847 71.948 124.543 70.46 124.543 68.54V58.7C124.543 57.772 124.703 57.148 125.023 56.828C125.343 56.476 126.031 56.3 127.087 56.3C127.855 56.3 128.623 56.316 129.391 56.348C130.159 56.348 130.927 56.348 131.695 56.348ZM158.292 75.692C156.052 75.692 154.436 75.324 153.444 74.588C152.452 73.82 151.956 72.476 151.956 70.556V53.852C151.956 53.148 152.02 52.604 152.148 52.22C152.276 51.836 152.532 51.58 152.916 51.452C153.3 51.324 153.86 51.26 154.596 51.26H159.252C159.22 51.356 159.172 51.708 159.108 52.316C159.076 52.924 159.06 53.596 159.06 54.332V69.74C159.06 70.892 159.204 71.708 159.492 72.188C159.78 72.636 160.324 72.86 161.124 72.86C161.412 72.86 161.716 72.828 162.036 72.764C162.388 72.7 162.596 72.652 162.66 72.62V75.26C162.436 75.292 162.02 75.372 161.412 75.5C160.804 75.628 159.764 75.692 158.292 75.692ZM174.666 75.692C172.938 75.692 171.578 75.516 170.586 75.164C169.626 74.78 168.954 74.172 168.57 73.34C168.186 72.476 167.994 71.292 167.994 69.788V60.092H165.93V56.348H167.994V53.9C167.994 53.1 168.042 52.508 168.138 52.124C168.266 51.74 168.506 51.5 168.858 51.404C169.21 51.308 169.77 51.26 170.538 51.26H175.146C175.146 51.388 175.146 51.548 175.146 51.74C175.146 51.932 175.146 52.172 175.146 52.46V56.348H179.802V60.092H175.194V69.212C175.194 70.492 175.306 71.42 175.53 71.996C175.786 72.572 176.442 72.86 177.498 72.86C177.786 72.86 178.154 72.828 178.602 72.764C179.082 72.7 179.418 72.636 179.61 72.572V75.212C179.386 75.244 178.826 75.34 177.93 75.5C177.066 75.628 175.978 75.692 174.666 75.692ZM190.494 75.692C188.35 75.692 186.862 75.276 186.03 74.444C185.198 73.612 184.782 72.252 184.782 70.364L184.83 56.348H191.982V70.076C191.982 71.068 192.126 71.788 192.414 72.236C192.734 72.652 193.246 72.86 193.95 72.86C194.366 72.86 194.718 72.828 195.006 72.764C195.294 72.7 195.47 72.652 195.534 72.62V75.26C195.406 75.292 195.166 75.34 194.814 75.404C194.462 75.468 193.95 75.532 193.278 75.596C192.606 75.66 191.678 75.692 190.494 75.692ZM188.478 54.044C187.358 54.044 186.558 53.9 186.078 53.612C185.598 53.324 185.358 52.796 185.358 52.028C185.358 51.26 185.598 50.732 186.078 50.444C186.59 50.124 187.422 49.964 188.574 49.964C189.662 49.996 190.43 50.156 190.878 50.444C191.358 50.732 191.582 51.26 191.55 52.028C191.55 52.796 191.326 53.324 190.878 53.612C190.462 53.9 189.662 54.044 188.478 54.044ZM201.922 75.5C200.706 75.5 200.098 74.876 200.098 73.628V57.5C201.058 57.18 202.498 56.892 204.418 56.636C206.338 56.348 208.45 56.204 210.754 56.204C213.218 56.204 215.154 56.348 216.562 56.636C218.002 56.892 219.058 57.356 219.73 58.028C220.434 58.668 220.882 59.532 221.074 60.62C221.298 61.708 221.41 63.068 221.41 64.7V72.812C221.41 73.516 221.362 74.076 221.266 74.492C221.17 74.876 220.914 75.148 220.498 75.308C220.114 75.468 219.506 75.548 218.674 75.548L214.306 75.5V63.02C214.306 61.964 213.986 61.212 213.346 60.764C212.706 60.316 211.842 60.092 210.754 60.092C210.37 60.092 209.954 60.14 209.506 60.236C209.058 60.3 208.626 60.396 208.21 60.524C207.826 60.62 207.506 60.764 207.25 60.956V75.5H201.922ZM236.818 81.26C235.474 81.26 234.258 81.228 233.17 81.164C232.114 81.1 231.218 80.956 230.482 80.732C229.746 80.54 229.17 80.252 228.754 79.868C228.37 79.516 228.178 79.036 228.178 78.428C228.178 78.236 228.178 77.98 228.178 77.66C228.178 77.34 228.178 77.116 228.178 76.988C228.498 77.148 229.074 77.308 229.906 77.468C230.77 77.66 231.714 77.804 232.738 77.9C233.762 78.028 234.674 78.092 235.474 78.092C237.33 78.092 238.722 77.836 239.65 77.324C240.578 76.844 241.186 76.06 241.474 74.972C241.762 73.852 241.826 72.428 241.666 70.7L242.482 70.796C242.13 71.756 241.666 72.508 241.09 73.052C240.546 73.596 239.794 73.996 238.834 74.252C237.874 74.476 236.658 74.588 235.186 74.588C233.17 74.588 231.538 74.348 230.29 73.868C229.074 73.356 228.178 72.476 227.602 71.228C227.058 69.98 226.786 68.204 226.786 65.9C226.786 63.916 226.978 62.3 227.362 61.052C227.778 59.772 228.45 58.78 229.378 58.076C230.306 57.372 231.538 56.892 233.074 56.636C234.642 56.38 236.594 56.252 238.93 56.252C239.634 56.252 240.498 56.284 241.522 56.348C242.546 56.38 243.57 56.444 244.594 56.54C245.65 56.604 246.578 56.668 247.378 56.732C248.178 56.796 248.706 56.844 248.962 56.876C248.93 56.972 248.898 57.196 248.866 57.548C248.866 57.9 248.866 58.316 248.866 58.796C248.866 59.244 248.866 59.708 248.866 60.188V71.66C248.866 74.252 248.434 76.236 247.57 77.612C246.738 78.988 245.442 79.932 243.682 80.444C241.922 80.988 239.634 81.26 236.818 81.26ZM237.634 70.604C238.338 70.604 238.994 70.508 239.602 70.316C240.242 70.092 240.754 69.692 241.138 69.116C241.522 68.54 241.73 67.724 241.762 66.668V60.236C241.506 60.204 241.01 60.172 240.274 60.14C239.538 60.076 238.754 60.044 237.922 60.044C236.93 60.044 236.146 60.188 235.57 60.476C235.026 60.732 234.626 61.244 234.37 62.012C234.146 62.78 234.034 63.9 234.034 65.372C234.034 66.78 234.162 67.868 234.418 68.636C234.674 69.404 235.058 69.932 235.57 70.22C236.114 70.476 236.802 70.604 237.634 70.604Z" fill="currentColor"/></g><defs><clipPath id="clip0_1_2"><rect width="261" height="93" fill="white"/></clipPath></defs></svg>