<svg
    xmlns="http://www.w3.org/2000/svg"
    viewBox="0 0 32 32"
    stroke-linecap="round"
    stroke-linejoin="round"
    stroke="currentColor"
    fill="none"
>
    <path d="M1 7.42857L14.15 18.7C14.6978 19.1699 15.3415 19.4206 16 19.4206C16.6585 19.4206 17.3022 19.1699 17.85 18.7L31 7.42857M4.33333 31H27.6667C28.5507 31 29.3986 30.5485 30.0237 29.7447C30.6488 28.941 31 27.8509 31 26.7143V5.28571C31 4.14907 30.6488 3.05898 30.0237 2.25526C29.3986 1.45153 28.5507 1 27.6667 1H4.33333C3.44928 1 2.60143 1.45153 1.97631 2.25526C1.35119 3.05898 1 4.14907 1 5.28571V26.7143C1 27.8509 1.35119 28.941 1.97631 29.7447C2.60143 30.5485 3.44928 31 4.33333 31Z"/>
</svg>
