<svg 
    xmlns="http://www.w3.org/2000/svg"
    viewBox="0 0 32 32"
    stroke="currentColor"
    stroke-linecap="round"
    stroke-linejoin="round"
    fill="none"
    >
    <path d="M3 9C3 20.0453 11.9547 29 23 29H26C26.7957 29 27.5587 28.6839 28.1213 28.1213C28.6839 27.5587 29 26.7957 29 26V24.1707C29 23.4827 28.532 22.8827 27.864 22.716L21.9667 21.2413C21.38 21.0947 20.764 21.3147 20.4027 21.7973L19.1093 23.5213C18.7333 24.0227 18.084 24.244 17.496 24.028C15.3132 23.2255 13.3309 21.9581 11.6864 20.3136C10.0419 18.6691 8.7745 16.6868 7.972 14.504C7.756 13.916 7.97733 13.2667 8.47867 12.8907L10.2027 11.5973C10.6867 11.236 10.9053 10.6187 10.7587 10.0333L9.284 4.136C9.20285 3.81159 9.01563 3.5236 8.75207 3.31778C8.48851 3.11196 8.16374 3.00011 7.82933 3H6C5.20435 3 4.44129 3.31607 3.87868 3.87868C3.31607 4.44129 3 5.20435 3 6V9Z"/>
</svg>
